# xmcd CD database file
#
# Track frame offsets:
#	150
#	19524
#	32056
#	43949
#	56943
#	70429
#	83580
#	95849
#	109268
#	119027
#	133048
#	146227
#	160761
#	173252
#	189268
#
# Disc length: 2647 seconds
#
# Revision: 0
# Processed by: cddbd v1.5.1PL2 Copyright (c) Steve Scherf et al.
# Submitted via: CDex 1.70beta2
#
DISCID=d50a550f
DTITLE=Tammy Wynette - The Great Disk 2
DYEAR=1900
DGENRE=Country
TTITLE0=01-Bedtime Story
TTITLE1=02-We Sure Can Love Each Other
TTITLE2=03-Another Lonely Song
TTITLE3=04-My Man
TTITLE4=05-Woman To Woman
TTITLE5=06-Kids Say The Darndest Things
TTITLE6=Help Me Make It Through The Night
TTITLE7=08-We're Gonna Hold On
TTITLE8=09-You Can't Hang On
TTITLE9=10-Loving You Could Not Be Better
TTITLE10=11-My Elusive Dreams
TTITLE11=12-Gentle On My Mind
TTITLE12=13-Right Here In Your Arms
TTITLE13=14-The Wonders You Perform
TTITLE14=15-The Legend Of Bonnie And Clyde
EXTD=
EXTT0=
EXTT1=
EXTT2=
EXTT3=
EXTT4=
EXTT5=
EXTT6=
EXTT7=
EXTT8=
EXTT9=
EXTT10=
EXTT11=
EXTT12=
EXTT13=
EXTT14=
PLAYORDER=
